<svg xmlns="http://www.w3.org/2000/svg" xmlns:xlink="http://www.w3.org/1999/xlink" width="500" zoomAndPan="magnify" viewBox="0 0 375 374.999991" height="500" preserveAspectRatio="xMidYMid meet" version="1.0"><defs><clipPath id="id1"><path d="M 53.207031 77 L 121 77 L 121 288.136719 L 53.207031 288.136719 Z M 53.207031 77 " clip-rule="nonzero"/></clipPath><clipPath id="id2"><path d="M 254 77 L 321.707031 77 L 321.707031 288.136719 L 254 288.136719 Z M 254 77 " clip-rule="nonzero"/></clipPath><clipPath id="id3"><path d="M 187 77 L 255 77 L 255 288.136719 L 187 288.136719 Z M 187 77 " clip-rule="nonzero"/></clipPath><clipPath id="id4"><path d="M 120 77 L 188 77 L 188 288.136719 L 120 288.136719 Z M 120 77 " clip-rule="nonzero"/></clipPath><clipPath id="id5"><path d="M 131 19.636719 L 244 19.636719 L 244 195 L 131 195 Z M 131 19.636719 " clip-rule="nonzero"/></clipPath><clipPath id="id6"><path d="M 112.582031 226 L 262.582031 226 L 262.582031 295 L 112.582031 295 Z M 112.582031 226 " clip-rule="nonzero"/></clipPath><clipPath id="id7"><path d="M 112.582031 290 L 262.582031 290 L 262.582031 355.324219 L 112.582031 355.324219 Z M 112.582031 290 " clip-rule="nonzero"/></clipPath><clipPath id="id8"><path d="M 244 290 L 262.582031 290 L 262.582031 355.324219 L 244 355.324219 Z M 244 290 " clip-rule="nonzero"/></clipPath><clipPath id="id9"><path d="M 112.582031 298 L 262.582031 298 L 262.582031 335 L 112.582031 335 Z M 112.582031 298 " clip-rule="nonzero"/></clipPath><clipPath id="id10"><path d="M 128 221.074219 L 154 221.074219 L 154 235 L 128 235 Z M 128 221.074219 " clip-rule="nonzero"/></clipPath><clipPath id="id11"><path d="M 174 221.074219 L 201 221.074219 L 201 235 L 174 235 Z M 174 221.074219 " clip-rule="nonzero"/></clipPath><clipPath id="id12"><path d="M 221 221.074219 L 248 221.074219 L 248 235 L 221 235 Z M 221 221.074219 " clip-rule="nonzero"/></clipPath></defs><path fill="#9d9d9d" d="M 350.613281 375 L 24.386719 375 C 10.949219 375 0 364.050781 0 350.613281 L 0 24.386719 C 0 10.949219 10.949219 0 24.386719 0 L 350.613281 0 C 364.050781 0 375 10.949219 375 24.386719 L 375 350.613281 C 375 364.050781 364.050781 375 350.613281 375 " fill-opacity="1" fill-rule="nonzero"/><g clip-path="url(#id1)"><path fill="#ffd05c" d="M 120.332031 267.839844 L 53.207031 288.136719 L 53.207031 98.125 L 120.332031 77.828125 Z M 120.332031 267.839844 " fill-opacity="1" fill-rule="nonzero"/></g><g clip-path="url(#id2)"><path fill="#f6b44b" d="M 254.582031 267.839844 L 321.707031 288.136719 L 321.707031 98.125 L 254.582031 77.828125 Z M 254.582031 267.839844 " fill-opacity="1" fill-rule="nonzero"/></g><g clip-path="url(#id3)"><path fill="#ffd05c" d="M 254.582031 267.839844 L 187.457031 288.136719 L 187.457031 98.125 L 254.582031 77.828125 Z M 254.582031 267.839844 " fill-opacity="1" fill-rule="nonzero"/></g><g clip-path="url(#id4)"><path fill="#f6b44b" d="M 120.332031 267.839844 L 187.457031 288.136719 L 187.457031 98.125 L 120.332031 77.828125 Z M 120.332031 267.839844 " fill-opacity="1" fill-rule="nonzero"/></g><g clip-path="url(#id5)"><path fill="#41596b" d="M 187.457031 19.636719 C 156.589844 19.636719 131.59375 44.636719 131.59375 75.5 C 131.59375 106.367188 187.457031 194.6875 187.457031 194.6875 C 187.457031 194.6875 243.324219 106.421875 243.324219 75.554688 C 243.324219 44.6875 218.324219 19.636719 187.457031 19.636719 Z M 187.457031 19.636719 " fill-opacity="1" fill-rule="nonzero"/></g><path fill="#ffffff" d="M 211.296875 75.5 C 211.296875 88.667969 200.621094 99.339844 187.457031 99.339844 C 174.292969 99.339844 163.621094 88.667969 163.621094 75.5 C 163.621094 62.335938 174.292969 51.664062 187.457031 51.664062 C 200.621094 51.664062 211.296875 62.335938 211.296875 75.5 Z M 211.296875 75.5 " fill-opacity="1" fill-rule="nonzero"/><g clip-path="url(#id6)"><path fill="#736357" d="M 237.378906 233.625 C 235.410156 229.140625 230.949219 226.238281 226.035156 226.238281 L 149.125 226.238281 C 144.214844 226.238281 139.753906 229.140625 137.785156 233.625 L 112.609375 290.78125 L 119.75 294.007812 L 253.632812 294.007812 L 262.554688 290.78125 Z M 205.679688 248.179688 C 205.679688 250.3125 203.933594 252.054688 201.800781 252.054688 L 173.363281 252.054688 C 171.230469 252.054688 169.484375 250.3125 169.484375 248.179688 L 169.484375 240.4375 C 169.484375 238.304688 171.230469 236.5625 173.363281 236.5625 L 201.800781 236.5625 C 203.933594 236.5625 205.679688 238.304688 205.679688 240.4375 Z M 205.679688 248.179688 " fill-opacity="1" fill-rule="nonzero"/></g><path fill="#fcb23d" d="M 160.4375 282.808594 L 160.4375 333.507812 C 160.4375 336.832031 157.722656 339.542969 154.394531 339.542969 L 127.699219 339.542969 C 124.371094 339.542969 121.65625 336.832031 121.65625 333.507812 L 121.65625 282.808594 C 121.65625 280.582031 122.5625 278.417969 124.144531 276.839844 L 128.023438 272.964844 C 129.476562 271.511719 130.351562 269.542969 130.480469 267.480469 L 131.449219 249.179688 L 138.460938 239.144531 L 143.632812 233.980469 L 150.675781 249.179688 L 151.648438 267.480469 C 151.742188 269.542969 152.617188 271.511719 154.101562 272.964844 L 157.980469 276.839844 C 159.53125 278.417969 160.4375 280.582031 160.4375 282.808594 Z M 160.4375 282.808594 " fill-opacity="1" fill-rule="nonzero"/><path fill="#df9431" d="M 157.949219 276.839844 L 154.070312 272.964844 C 152.617188 271.511719 151.742188 269.542969 151.613281 267.480469 L 150.644531 249.179688 L 143.632812 233.980469 L 138.980469 238.628906 C 139.851562 238.886719 140.722656 239.242188 141.5625 239.695312 C 144.214844 241.210938 145.25 243.890625 145.539062 246.792969 C 146.28125 254.601562 144.246094 262.671875 146.378906 270.351562 C 147.316406 273.707031 149.160156 276.773438 149.902344 280.195312 C 150.839844 284.390625 150.289062 288.972656 150.191406 293.230469 C 150.03125 302.558594 150.449219 311.722656 151.226562 321.019531 C 151.613281 325.601562 151.96875 330.183594 152.035156 334.765625 C 152.066406 336.316406 151.90625 337.929688 151.808594 339.574219 L 154.394531 339.574219 C 157.722656 339.574219 160.4375 336.863281 160.4375 333.539062 L 160.4375 282.808594 C 160.4375 280.582031 159.53125 278.417969 157.949219 276.839844 Z M 157.949219 276.839844 " fill-opacity="1" fill-rule="nonzero"/><path fill="#fcb23d" d="M 253.503906 282.808594 L 253.503906 333.507812 C 253.503906 336.832031 250.789062 339.542969 247.460938 339.542969 L 220.769531 339.542969 C 217.441406 339.542969 214.726562 336.832031 214.726562 333.507812 L 214.726562 282.808594 C 214.726562 280.582031 215.632812 278.417969 217.214844 276.839844 L 221.09375 272.964844 C 222.546875 271.511719 223.417969 269.542969 223.546875 267.480469 L 224.519531 249.179688 L 231.53125 239.144531 L 236.699219 233.980469 L 243.746094 249.179688 L 244.714844 267.480469 C 244.8125 269.542969 245.683594 271.511719 247.171875 272.964844 L 251.050781 276.839844 C 252.601562 278.417969 253.503906 280.582031 253.503906 282.808594 Z M 253.503906 282.808594 " fill-opacity="1" fill-rule="nonzero"/><path fill="#fcb23d" d="M 206.96875 282.808594 L 206.96875 333.507812 C 206.96875 336.832031 204.257812 339.542969 200.925781 339.542969 L 174.234375 339.542969 C 170.90625 339.542969 168.191406 336.832031 168.191406 333.507812 L 168.191406 282.808594 C 168.191406 280.582031 169.097656 278.417969 170.679688 276.839844 L 174.558594 272.964844 C 176.011719 271.511719 176.886719 269.542969 177.015625 267.480469 L 177.984375 249.179688 L 184.996094 239.144531 L 190.167969 233.980469 L 197.210938 249.179688 L 198.179688 267.480469 C 198.277344 269.542969 199.148438 271.511719 200.636719 272.964844 L 204.515625 276.839844 C 206.066406 278.417969 206.96875 280.582031 206.96875 282.808594 Z M 206.96875 282.808594 " fill-opacity="1" fill-rule="nonzero"/><path fill="#df9431" d="M 204.449219 276.839844 L 200.570312 272.964844 C 199.117188 271.511719 198.246094 269.542969 198.117188 267.480469 L 197.148438 249.179688 L 190.132812 233.980469 L 185.480469 238.628906 C 186.351562 238.886719 187.226562 239.242188 188.066406 239.695312 C 190.714844 241.210938 191.75 243.890625 192.039062 246.792969 C 192.785156 254.601562 190.75 262.671875 192.882812 270.351562 C 193.816406 273.707031 195.660156 276.773438 196.402344 280.195312 C 197.339844 284.390625 196.792969 288.972656 196.695312 293.230469 C 196.53125 302.558594 196.953125 311.722656 197.726562 321.019531 C 198.117188 325.601562 198.472656 330.183594 198.535156 334.765625 C 198.570312 336.316406 198.40625 337.929688 198.308594 339.574219 L 200.894531 339.574219 C 204.222656 339.574219 206.9375 336.863281 206.9375 333.539062 L 206.9375 282.808594 C 206.9375 280.582031 206.066406 278.417969 204.449219 276.839844 Z M 204.449219 276.839844 " fill-opacity="1" fill-rule="nonzero"/><path fill="#df9431" d="M 250.984375 276.839844 L 247.105469 272.964844 C 245.652344 271.511719 244.78125 269.542969 244.652344 267.480469 L 243.679688 249.179688 L 236.667969 233.980469 L 232.015625 238.628906 C 232.886719 238.886719 233.761719 239.242188 234.601562 239.695312 C 237.25 241.210938 238.285156 243.890625 238.574219 246.792969 C 239.320312 254.601562 237.28125 262.671875 239.414062 270.351562 C 240.351562 273.707031 242.195312 276.773438 242.9375 280.195312 C 243.875 284.390625 243.324219 288.972656 243.230469 293.230469 C 243.066406 302.558594 243.488281 311.722656 244.261719 321.019531 C 244.652344 325.601562 245.007812 330.183594 245.070312 334.765625 C 245.101562 336.316406 244.941406 337.929688 244.84375 339.574219 L 247.429688 339.574219 C 250.757812 339.574219 253.472656 336.863281 253.472656 333.539062 L 253.472656 282.808594 C 253.472656 280.582031 252.601562 278.417969 250.984375 276.839844 Z M 250.984375 276.839844 " fill-opacity="1" fill-rule="nonzero"/><g clip-path="url(#id7)"><path fill="#998675" d="M 255.832031 355.324219 L 119.332031 355.324219 C 115.613281 355.324219 112.609375 352.320312 112.609375 348.609375 L 112.609375 334.539062 L 117.78125 323.664062 L 112.609375 311.402344 L 112.609375 290.78125 L 262.554688 290.78125 L 262.554688 311.660156 L 256.738281 324.503906 L 262.554688 334.539062 L 262.554688 348.609375 C 262.554688 352.320312 259.546875 355.324219 255.832031 355.324219 Z M 255.832031 355.324219 " fill-opacity="1" fill-rule="nonzero"/></g><g clip-path="url(#id8)"><path fill="#917d6d" d="M 262.554688 290.78125 L 249.273438 290.78125 C 249.851562 294.457031 250.175781 298.167969 250.371094 301.914062 C 250.953125 314.402344 249.789062 326.988281 247.65625 339.285156 C 246.71875 344.671875 245.621094 350.03125 244.261719 355.324219 L 255.832031 355.324219 C 259.546875 355.324219 262.554688 352.320312 262.554688 348.609375 L 262.554688 334.539062 L 256.738281 324.503906 L 262.554688 311.660156 Z M 262.554688 290.78125 " fill-opacity="1" fill-rule="nonzero"/></g><g clip-path="url(#id9)"><path fill="#f9c06e" d="M 204.933594 311.433594 C 202.703125 303.980469 195.789062 298.523438 187.582031 298.523438 C 179.375 298.523438 172.457031 303.980469 170.226562 311.433594 L 112.609375 311.433594 L 112.609375 334.667969 L 262.554688 334.667969 L 262.554688 311.433594 Z M 204.933594 311.433594 " fill-opacity="1" fill-rule="nonzero"/></g><path fill="#18788f" d="M 150.675781 249.179688 L 131.417969 249.179688 L 132.417969 229.820312 L 149.675781 229.820312 Z M 150.675781 249.179688 " fill-opacity="1" fill-rule="nonzero"/><path fill="#0e6c7c" d="M 141.5625 239.695312 C 144.214844 241.210938 145.25 243.890625 145.539062 246.792969 C 145.605469 247.601562 145.667969 248.40625 145.699219 249.214844 L 150.710938 249.214844 L 149.675781 229.851562 L 132.417969 229.851562 L 132.03125 237.5 C 135.296875 237.917969 138.65625 238.046875 141.5625 239.695312 Z M 141.5625 239.695312 " fill-opacity="1" fill-rule="nonzero"/><g clip-path="url(#id10)"><path fill="#999999" d="M 153.972656 232.496094 L 153.941406 232.5625 C 152.324219 234.691406 149.160156 234.660156 147.542969 232.53125 L 147.511719 232.496094 L 147.476562 232.5625 C 145.863281 234.691406 142.695312 234.691406 141.078125 232.5625 L 141.046875 232.53125 C 139.496094 234.691406 136.296875 234.722656 134.648438 232.625 L 134.585938 232.496094 C 133.03125 234.660156 129.832031 234.691406 128.1875 232.59375 L 128.121094 232.496094 L 128.121094 225.527344 C 128.121094 223.074219 130.125 221.074219 132.582031 221.074219 L 149.515625 221.074219 C 151.96875 221.074219 153.972656 223.074219 153.972656 225.527344 Z M 153.972656 232.496094 " fill-opacity="1" fill-rule="nonzero"/></g><path fill="#18788f" d="M 197.210938 249.179688 L 177.953125 249.179688 L 178.953125 229.820312 L 196.210938 229.820312 Z M 197.210938 249.179688 " fill-opacity="1" fill-rule="nonzero"/><path fill="#0e6c7c" d="M 188.066406 239.695312 C 190.714844 241.210938 191.75 243.890625 192.039062 246.792969 C 192.105469 247.601562 192.171875 248.40625 192.203125 249.214844 L 197.210938 249.214844 L 196.175781 229.851562 L 178.953125 229.851562 L 178.53125 237.46875 C 181.796875 237.917969 185.15625 238.046875 188.066406 239.695312 Z M 188.066406 239.695312 " fill-opacity="1" fill-rule="nonzero"/><g clip-path="url(#id11)"><path fill="#999999" d="M 200.507812 232.496094 L 200.476562 232.5625 C 198.859375 234.691406 195.691406 234.660156 194.078125 232.53125 L 194.042969 232.496094 L 194.011719 232.5625 C 192.394531 234.691406 189.230469 234.691406 187.613281 232.5625 L 187.582031 232.53125 C 186.03125 234.691406 182.832031 234.722656 181.183594 232.625 L 181.117188 232.53125 C 179.566406 234.691406 176.367188 234.722656 174.71875 232.625 L 174.65625 232.53125 L 174.65625 225.527344 C 174.65625 223.074219 176.660156 221.074219 179.113281 221.074219 L 196.046875 221.074219 C 198.503906 221.074219 200.507812 223.074219 200.507812 225.527344 Z M 200.507812 232.496094 " fill-opacity="1" fill-rule="nonzero"/></g><path fill="#18788f" d="M 243.746094 249.179688 L 224.484375 249.179688 L 225.488281 229.820312 L 242.742188 229.820312 Z M 243.746094 249.179688 " fill-opacity="1" fill-rule="nonzero"/><path fill="#0e6c7c" d="M 234.601562 239.695312 C 237.25 241.210938 238.285156 243.890625 238.574219 246.792969 C 238.640625 247.601562 238.703125 248.40625 238.738281 249.214844 L 243.746094 249.214844 L 242.710938 229.851562 L 225.488281 229.851562 L 225.066406 237.46875 C 228.332031 237.917969 231.691406 238.046875 234.601562 239.695312 Z M 234.601562 239.695312 " fill-opacity="1" fill-rule="nonzero"/><g clip-path="url(#id12)"><path fill="#999999" d="M 247.042969 232.496094 L 247.007812 232.5625 C 245.394531 234.691406 242.226562 234.660156 240.609375 232.53125 L 240.578125 232.496094 L 240.546875 232.5625 C 238.929688 234.691406 235.765625 234.691406 234.148438 232.5625 L 234.117188 232.53125 C 232.566406 234.691406 229.367188 234.722656 227.71875 232.625 L 227.652344 232.53125 C 226.101562 234.691406 222.902344 234.722656 221.253906 232.625 L 221.191406 232.53125 L 221.191406 225.527344 C 221.191406 223.074219 223.191406 221.074219 225.648438 221.074219 L 242.582031 221.074219 C 245.039062 221.074219 247.042969 223.074219 247.042969 225.527344 Z M 247.042969 232.496094 " fill-opacity="1" fill-rule="nonzero"/></g></svg>